<svg width="30" height="30" viewBox="0 0 30 30" fill="none" xmlns="http://www.w3.org/2000/svg">
<path d="M7.5 27.75C8.32843 27.75 9 27.0784 9 26.25C9 25.4216 8.32843 24.75 7.5 24.75C6.67157 24.75 6 25.4216 6 26.25C6 27.0784 6.67157 27.75 7.5 27.75Z" fill="white"/>
<path d="M17.25 27.75C18.0784 27.75 18.75 27.0784 18.75 26.25C18.75 25.4216 18.0784 24.75 17.25 24.75C16.4216 24.75 15.75 25.4216 15.75 26.25C15.75 27.0784 16.4216 27.75 17.25 27.75Z" fill="white"/>
<path d="M3.96562 12.75H20.7844L18.3094 21.4125C18.2211 21.7269 18.032 22.0036 17.7711 22.2C17.5103 22.3965 17.1922 22.5019 16.8656 22.5H7.88437C7.55783 22.5019 7.2397 22.3965 6.97886 22.2C6.71803 22.0036 6.52893 21.7269 6.44062 21.4125L3.04688 9.54375C3.00203 9.38696 2.9073 9.24905 2.77704 9.15093C2.64677 9.05282 2.48808 8.99983 2.325 9H0.75" stroke="white" stroke-width="1.5" stroke-linecap="round" stroke-linejoin="round"/>
<rect x="7.25" y="1.25" width="21.5" height="21.5" rx="10.75" fill="white"/>
<rect x="7.25" y="1.25" width="21.5" height="21.5" rx="10.75" stroke="#1B6392" stroke-width="1.5"/>
<path d="M15.0049 16V15.22V14.818C15.0049 14.374 15.0869 13.992 15.2509 13.672C15.4149 13.348 15.6329 13.066 15.9049 12.826C16.1769 12.586 16.4749 12.374 16.7989 12.19C17.1269 12.002 17.4509 11.826 17.7709 11.662C18.0949 11.494 18.3929 11.322 18.6649 11.146C18.9369 10.966 19.1549 10.766 19.3189 10.546C19.4869 10.326 19.5709 10.064 19.5709 9.76C19.5709 9.372 19.4329 9.056 19.1569 8.812C18.8849 8.564 18.5149 8.44 18.0469 8.44C17.5509 8.44 17.1409 8.582 16.8169 8.866C16.4969 9.15 16.3069 9.55 16.2469 10.066H14.8309C14.8389 9.538 14.9649 9.058 15.2089 8.626C15.4529 8.194 15.8149 7.85 16.2949 7.594C16.7749 7.334 17.3729 7.204 18.0889 7.204C18.7089 7.204 19.2429 7.312 19.6909 7.528C20.1429 7.74 20.4909 8.038 20.7349 8.422C20.9829 8.802 21.1069 9.246 21.1069 9.754C21.1069 10.198 21.0249 10.578 20.8609 10.894C20.7009 11.21 20.4869 11.484 20.2189 11.716C19.9549 11.944 19.6629 12.146 19.3429 12.322C19.0269 12.498 18.7089 12.664 18.3889 12.82C18.0729 12.972 17.7809 13.132 17.5129 13.3C17.2489 13.464 17.0349 13.652 16.8709 13.864C16.7109 14.076 16.6309 14.33 16.6309 14.626V14.752H21.1249V16H15.0049Z" fill="#1B6392"/>
</svg>
